<?xml version="1.0" encoding="utf-8"?>
<!-- Generator: Adobe Illustrator 22.1.0, SVG Export Plug-In . SVG Version: 6.00 Build 0)  -->
<svg version="1.1" id="Layer_1" xmlns="http://www.w3.org/2000/svg" xmlns:xlink="http://www.w3.org/1999/xlink" x="0px" y="0px"
	 viewBox="0 0 100 100" style="enable-background:new 0 0 100 100;" xml:space="preserve">
<g>
	<path d="M24.4,52.8L19.5,48c0.7-0.1,1.6-0.3,2.1-0.9c0.8-0.8,0.7-1.9-0.1-2.7L14,36.8c-0.8-0.8-2-0.8-2.7,0l-0.1,0.1L11.1,37
		l-7.6,7.6c-0.8,0.8-0.8,2,0,2.7C4.1,48,5,48.1,5.7,48.1l-5,5c-1,1-1,2.5,0,3.5c1,1,2.6,0.9,3.5,0.9l5.8,0v3.7
		c0,1.4,1.1,2.5,2.5,2.5c1.4,0,2.5-1.1,2.5-2.5v-3.7l5.8,0c1,0,2.5-0.2,3.5-1.2C25.4,55.3,25.3,53.8,24.4,52.8z"/>
	<g>
		<path d="M88.5,41.4H34.1c-1.4,0-2.5-1.1-2.5-2.5s1.1-2.5,2.5-2.5h54.4c1.4,0,2.5,1.1,2.5,2.5S89.8,41.4,88.5,41.4z"/>
	</g>
	<g>
		<path d="M97,52.5H34.1c-1.4,0-2.5-1.1-2.5-2.5s1.1-2.5,2.5-2.5H97c1.4,0,2.5,1.1,2.5,2.5S98.4,52.5,97,52.5z"/>
	</g>
	<g>
		<path d="M53.1,63.7h-19c-1.4,0-2.5-1.1-2.5-2.5s1.1-2.5,2.5-2.5h19c1.4,0,2.5,1.1,2.5,2.5S54.5,63.7,53.1,63.7z"/>
	</g>
</g>
</svg>
